<?xml version="1.0" standalone="no"?>
<!DOCTYPE svg PUBLIC "-//W3C//DTD SVG 20010904//EN"
 "http://www.w3.org/TR/2001/REC-SVG-20010904/DTD/svg10.dtd">
<svg version="1.0" xmlns="http://www.w3.org/2000/svg"
 width="1170.000000pt" height="779.000000pt" viewBox="0 0 1170.000000 779.000000"
 preserveAspectRatio="xMidYMid meet">

<g transform="translate(0.000000,779.000000) scale(0.100000,-0.100000)"
fill="#000000" stroke="none">
<path d="M5575 6764 c-110 -12 -358 -59 -467 -88 -552 -152 -1065 -477 -1428
-905 -52 -62 -99 -119 -103 -127 -7 -12 47 -14 381 -14 l389 0 18 63 c17 54
91 217 100 217 2 0 1 -16 -2 -35 -4 -22 -2 -35 5 -35 6 0 9 -7 5 -15 -3 -9 -8
-14 -10 -11 -8 8 -33 -21 -33 -39 0 -12 4 -14 19 -5 24 12 41 13 21 0 -8 -5
-14 -21 -15 -37 0 -17 -5 -28 -14 -28 -8 0 -16 -6 -18 -12 -3 -7 2 -13 11 -13
13 0 14 -3 4 -19 -7 -11 -15 -18 -19 -15 -8 5 -22 -35 -19 -59 1 -9 -6 -24
-14 -33 -9 -8 -16 -26 -16 -39 0 -13 -6 -25 -12 -28 -10 -3 -10 -7 -1 -17 13
-14 6 -43 -8 -34 -9 5 -12 -30 -9 -101 4 -83 59 -165 172 -252 32 -24 58 -52
58 -62 0 -24 -20 -41 -47 -41 -20 0 -23 -5 -23 -35 0 -19 5 -35 10 -35 15 0
12 -36 -3 -49 -10 -8 -210 -12 -688 -13 l-673 -3 -33 -110 c-57 -189 -125
-558 -108 -586 7 -10 1627 -13 1637 -3 6 6 -28 99 -44 120 -4 6 -21 9 -36 6
-39 -5 -47 19 -26 79 17 46 17 49 -4 104 -12 31 -22 72 -22 91 0 35 28 97 53
117 8 7 27 78 46 177 77 402 129 540 202 540 13 0 19 -7 19 -22 0 -12 7 -29
16 -39 14 -15 13 -26 -7 -119 -16 -76 -20 -120 -15 -169 3 -36 6 -67 6 -68 0
-2 6 -3 14 -3 18 0 24 16 46 120 18 87 55 175 84 200 26 21 31 3 12 -38 -66
-136 -60 -282 14 -347 20 -17 19 -13 -9 36 -26 47 -31 66 -31 125 0 90 29 153
99 216 184 166 481 82 481 -136 0 -34 10 -33 45 4 25 26 27 34 22 75 -9 65
-31 102 -98 167 -33 32 -59 63 -59 69 0 6 16 29 35 50 19 22 35 43 35 48 0 19
-19 57 -39 78 l-21 22 33 25 c90 68 386 156 627 186 180 22 547 4 612 -31 26
-14 94 -135 129 -229 50 -138 93 -223 140 -276 66 -74 86 -111 98 -184 10 -63
45 -261 76 -425 8 -44 15 -89 15 -100 0 -11 5 -27 10 -35 8 -13 14 -11 35 13
14 15 30 27 34 27 11 0 41 79 41 107 0 12 -11 30 -25 41 -30 24 -32 60 -5 95
28 35 26 82 -5 119 -19 22 -24 36 -18 52 4 11 7 50 8 86 0 42 6 74 17 90 20
31 14 138 -8 147 -8 3 -14 20 -14 42 0 21 -7 46 -15 57 -8 10 -15 25 -15 32 0
7 -16 34 -35 59 l-34 45 28 56 c37 74 55 162 47 234 -3 32 -4 58 -2 58 2 0 57
-61 122 -135 81 -92 132 -142 160 -155 38 -19 59 -20 338 -18 l296 3 -72 90
c-92 115 -286 308 -408 406 -399 321 -831 516 -1335 605 -135 24 -178 27 -435
29 -157 2 -303 1 -325 -1z m1025 -188 c0 -11 -19 -15 -25 -6 -3 5 1 10 9 10 9
0 16 -2 16 -4z m124 -31 c21 -9 36 -18 34 -21 -5 -5 -64 12 -90 26 -10 6 -24
7 -33 4 -8 -4 -15 -1 -15 6 0 16 49 9 104 -15z m134 -74 c52 -35 92 -71 80
-71 -3 0 -15 9 -28 20 -12 11 -26 17 -30 15 -5 -3 -17 5 -27 18 -10 12 -34 33
-53 46 -19 12 -27 20 -17 17 9 -3 43 -23 75 -45z m-2360 -598 c-5 -25 -28 -28
-28 -4 0 12 6 21 16 21 9 0 14 -7 12 -17z m-71 -1074 c-104 -86 -148 -287 -97
-450 21 -70 19 -92 -4 -37 -61 145 -31 380 59 475 23 24 50 43 61 43 14 0 10
-7 -19 -31z"/>
<path d="M4411 5724 c0 -11 3 -14 6 -6 3 7 2 16 -1 19 -3 4 -6 -2 -5 -13z"/>
<path d="M4430 5730 c0 -5 5 -10 10 -10 6 0 10 5 10 10 0 6 -4 10 -10 10 -5 0
-10 -4 -10 -10z"/>
<path d="M6233 5665 c-112 -14 -151 -33 -173 -85 -28 -68 14 -105 136 -120 43
-6 82 -14 87 -19 5 -5 -17 -25 -52 -46 -34 -21 -60 -39 -58 -41 2 -2 21 1 43
7 57 16 191 6 248 -20 95 -42 167 -118 199 -211 l16 -45 0 35 c1 46 -28 108
-84 179 -25 31 -45 63 -45 69 0 19 44 14 122 -13 116 -41 128 -35 103 52 -13
44 -28 68 -71 110 -30 29 -59 53 -65 53 -5 0 -28 12 -52 27 -52 33 -193 83
-227 82 -14 -1 -71 -7 -127 -14z"/>
<path d="M5228 5246 c-56 -20 -85 -42 -115 -88 -24 -35 -28 -52 -28 -108 0
-56 4 -73 28 -108 46 -70 130 -98 228 -77 18 4 39 12 46 17 7 5 18 6 25 2 7
-4 10 -4 6 1 -4 4 2 15 14 24 28 23 56 117 51 172 -8 79 -67 146 -148 168 -50
14 -61 13 -107 -3z"/>
<path d="M6247 5250 c-77 -23 -137 -108 -137 -193 0 -57 14 -94 48 -130 95
-101 253 -94 328 15 104 150 -60 361 -239 308z m168 -49 c53 -31 76 -77 74
-148 -2 -67 -34 -133 -64 -133 -21 0 -19 7 10 38 14 15 28 38 32 51 8 32 -14
121 -37 149 -23 28 -79 52 -122 52 -26 0 -30 3 -18 11 20 13 87 3 125 -20z"/>
<path d="M5524 4985 c-20 -30 -43 -93 -44 -117 0 -10 -7 -18 -16 -18 -24 0
-161 -95 -224 -155 -67 -65 -110 -87 -158 -84 -41 3 -123 36 -134 53 -4 6 -8
7 -8 3 0 -5 -23 15 -51 43 -41 41 -53 49 -65 39 -7 -6 -11 -15 -8 -20 3 -5 0
-9 -5 -9 -18 0 -68 -115 -92 -208 -17 -68 -22 -118 -23 -228 l-1 -141 39 -79
c55 -108 168 -221 285 -284 81 -43 83 -45 58 -54 -14 -5 -31 -21 -37 -35 -6
-14 -34 -44 -63 -67 -59 -45 -112 -107 -147 -171 -22 -40 -22 -43 -7 -67 23
-35 21 -48 -13 -104 -19 -31 -27 -55 -24 -70 5 -16 0 -24 -20 -33 -19 -9 -24
-17 -20 -34 5 -21 -22 -56 -35 -45 -3 3 -7 -7 -9 -21 -3 -22 5 -32 47 -59 46
-29 67 -60 41 -60 -5 0 -10 -21 -10 -46 l0 -46 -94 7 c-104 7 -102 8 -123 -60
l-13 -40 6 50 c12 127 63 286 139 438 l54 107 -855 0 -854 0 5 -22 c31 -147
64 -271 95 -362 39 -117 115 -302 132 -323 8 -10 146 -13 629 -13 616 0 618 0
633 21 17 25 49 22 54 -5 2 -10 -14 -57 -37 -105 -77 -168 -77 -222 0 -306 94
-101 239 -96 310 11 13 19 41 44 62 55 29 15 44 33 61 70 l22 50 34 -77 c18
-42 53 -102 76 -134 24 -32 52 -76 63 -97 25 -50 54 -161 47 -180 -5 -13 -43
-14 -254 -11 -302 4 -281 -5 -448 186 -121 137 -166 171 -227 172 -57 0 -93
-27 -212 -159 -128 -143 -168 -173 -260 -191 l-59 -12 104 -102 c434 -423 995
-695 1608 -780 156 -22 608 -22 764 0 613 85 1177 359 1608 781 l105 103 -732
0 -733 0 0 26 c0 59 42 165 97 246 48 70 91 152 118 223 7 17 9 16 15 -12 11
-47 36 -81 73 -99 18 -9 44 -33 59 -55 38 -53 92 -79 169 -79 73 0 120 20 156
67 14 18 24 35 22 38 -3 2 -28 -3 -56 -11 -62 -18 -117 -7 -152 30 -32 34 -15
63 39 72 31 5 42 12 46 29 9 35 1 67 -18 79 -24 15 -47 -1 -75 -50 -12 -21
-27 -45 -33 -51 -16 -19 -58 -16 -94 6 -58 36 -81 102 -62 179 11 47 -6 40
-37 -15 -26 -48 -27 -48 -27 -17 0 19 6 34 15 38 8 3 15 16 15 28 0 35 11 45
55 51 22 4 60 11 85 16 25 6 95 10 157 11 90 0 114 -3 120 -15 8 -13 86 -15
642 -13 l633 3 44 103 c66 154 112 291 150 449 19 77 34 144 34 147 0 3 -386
6 -858 6 l-858 0 54 -107 c29 -60 68 -158 88 -220 41 -132 72 -299 57 -314
-13 -13 -145 -22 -161 -11 -7 5 -18 36 -24 70 l-11 61 -46 3 -45 3 -11 55
c-12 56 -25 88 -48 112 -46 49 -107 127 -107 139 0 8 9 29 20 47 28 45 25 67
-12 96 l-32 25 0 122 c0 121 0 122 28 144 l28 22 -31 26 c-17 14 -35 37 -41
51 -5 14 -16 26 -25 26 -32 0 -13 18 46 44 85 37 155 85 224 155 59 60 135
165 135 188 0 6 -35 -8 -77 -32 -161 -91 -366 -126 -620 -107 -82 6 -164 16
-183 21 -19 5 -54 15 -77 21 -44 11 -93 51 -93 74 0 7 8 20 18 29 38 35 88 46
238 52 82 4 179 13 215 21 195 39 344 165 356 301 6 66 -7 103 -36 103 -10 0
-53 -9 -97 -21 -147 -38 -235 -8 -374 130 -116 114 -246 182 -264 136 -4 -11
-23 -15 -78 -15 -115 0 -197 30 -327 120 -109 75 -108 75 -127 45z m779 -1505
c31 -36 41 -43 55 -34 69 42 82 48 92 38 6 -6 13 -55 16 -110 6 -113 15 -137
60 -164 40 -25 65 -25 97 0 l25 20 16 -33 c9 -17 28 -52 42 -77 39 -70 74
-179 74 -231 0 -26 5 -51 11 -55 9 -5 10 8 6 47 l-6 54 15 -34 c9 -20 14 -55
12 -90 -3 -53 -5 -57 -39 -74 -58 -28 -364 -42 -871 -38 l-166 1 -4 55 c-1 30
-1 60 0 65 5 13 68 13 92 0 10 -5 25 -7 33 -4 12 4 10 10 -9 29 -20 20 -22 28
-14 49 11 29 -5 36 -24 12 -14 -18 -62 -33 -51 -16 4 6 -2 21 -13 33 -15 16
-22 39 -25 82 l-3 60 -2 -66 c-1 -45 -6 -69 -15 -72 -21 -8 -765 -12 -773 -4
-10 10 62 154 83 165 36 19 681 58 697 42 26 -26 35 -3 46 110 5 51 4 90 -1
96 -10 13 24 202 42 236 14 26 56 33 93 16 17 -9 66 -47 110 -87 43 -39 84
-71 91 -71 7 0 18 7 25 15 8 9 8 15 2 15 -6 0 -50 33 -99 73 l-88 72 108 6
c59 3 110 9 114 13 7 7 81 -67 146 -144z m138 123 c6 -16 13 -41 16 -58 4 -27
0 -32 -46 -58 l-50 -27 -65 77 c-36 43 -66 81 -66 86 0 4 45 7 100 7 100 0
101 0 111 -27z m-740 -64 c-30 -28 -65 -58 -79 -67 -23 -15 -26 -15 -43 7 -23
29 -35 69 -23 81 8 8 122 26 179 28 15 1 7 -11 -34 -49z m65 -6 c-3 -10 -10
-56 -16 -103 -6 -46 -14 -88 -16 -92 -3 -4 -104 -8 -225 -8 -242 0 -245 1
-173 55 22 17 52 47 67 68 15 20 31 37 36 37 4 0 21 -18 36 -39 15 -22 34 -42
43 -44 30 -6 75 12 107 43 35 34 125 99 138 99 5 1 6 -7 3 -16z m-371 -32
c-17 -33 -35 -49 -35 -30 0 11 38 59 47 59 2 0 -3 -13 -12 -29z m1219 -117
c21 -8 21 -63 1 -71 -9 -3 -25 3 -35 12 -39 36 -15 78 34 59z m-1475 -13 c21
-13 4 -31 -30 -31 -27 0 -39 17 -22 33 9 10 35 8 52 -2z m-219 -596 c1 -59 36
-185 55 -199 11 -8 15 -22 13 -41 l-3 -30 -24 45 c-13 25 -38 61 -55 80 l-33
35 7 101 c8 115 20 151 32 89 4 -22 7 -58 8 -80z m798 -1 c2 -34 -2 -55 -11
-62 -9 -8 -70 -9 -218 -3 -182 8 -273 21 -256 37 9 9 -26 44 -45 44 -9 0 -19
4 -22 9 -7 11 59 17 229 20 71 1 132 4 134 7 3 3 46 3 96 2 l90 -3 3 -51z
m-663 36 c28 -4 41 -8 30 -9 -11 -1 -31 -10 -45 -21 -33 -26 -65 -25 -84 2 -9
12 -16 26 -16 30 0 10 48 9 115 -2z m829 -727 c3 -16 8 -54 12 -85 l6 -58 -42
0 -42 0 6 68 c9 89 14 102 36 102 12 0 20 -9 24 -27z m-599 -312 c5 -10 -35
-44 -43 -37 -6 7 18 46 28 46 5 0 11 -4 15 -9z m154 -85 c25 -9 60 -28 79 -43
34 -26 35 -27 13 -35 -17 -6 -31 -2 -56 18 -52 40 -128 64 -193 63 l-57 -2 55
-7 c68 -9 105 -24 149 -57 33 -26 33 -27 12 -35 -16 -6 -31 -1 -62 22 -51 37
-126 54 -217 48 -61 -3 -69 -2 -49 9 12 7 37 12 55 13 18 0 31 4 27 9 -3 5 3
12 12 15 34 10 188 -2 232 -18z m1063 6 c7 -7 19 -12 28 -12 8 -1 29 -7 45
-15 28 -13 25 -13 -41 -8 -85 7 -166 -9 -217 -43 -37 -25 -72 -29 -72 -9 0 20
105 66 167 74 61 8 62 8 16 10 -72 2 -143 -17 -188 -50 -27 -20 -48 -28 -61
-24 -10 4 -19 10 -19 14 0 10 75 52 124 67 49 16 201 13 218 -4z"/>
<path d="M5806 3165 c-3 -8 3 -19 14 -25 32 -17 42 -11 23 15 -21 28 -29 31
-37 10z"/>
<path d="M5905 2840 c-4 -6 3 -10 14 -10 25 0 27 6 6 13 -8 4 -17 2 -20 -3z"/>
<path d="M7412 4821 c36 -23 53 -44 79 -96 28 -58 33 -78 37 -168 10 -232 -73
-358 -237 -358 -43 -1 -75 6 -106 21 -37 18 -48 20 -60 10 -8 -7 -15 -18 -15
-25 0 -7 -7 -18 -15 -25 -8 -7 -15 -16 -15 -21 0 -5 356 -9 820 -9 451 0 820
2 820 4 0 3 -7 58 -15 123 -21 154 -57 322 -100 461 l-36 112 -601 0 -602 0
46 -29z"/>
<path d="M4670 2991 c0 -23 36 -35 44 -14 9 23 -4 36 -22 21 -12 -10 -14 -10
-8 0 4 6 2 12 -3 12 -6 0 -11 -8 -11 -19z"/>
</g>
</svg>
